<svg id="Layer_1" data-name="Layer 1" xmlns="http://www.w3.org/2000/svg" viewBox="0 0 307.91 18.75"><defs><style>.cls-1{fill:#fff;fill-rule:evenodd;}</style></defs><title>border-top</title><path class="cls-1" d="M575.12,382.71c-5.68,5-44.75,15.94-45.72,2.28s26.91-13.13,57.41-8c36.25,6.09,75.7,17.74,67.7,4.95a9.44,9.44,0,0,0-.75-1c-8.74,2.84-20.21,5.92-24.17-.47-5.41-8.7,16.95-10.47,25.46-2.43,2.41-.79,4.67-1.53,6.62-2A94.66,94.66,0,0,1,705,376c2,.44,4.21,1.18,6.61,2,8.52-8,30.88-6.27,25.47,2.43-4,6.39-15.43,3.31-24.17.47a11.07,11.07,0,0,0-.76,1c-8,12.79,31.46,1.14,67.71-4.95,30.5-5.13,58.37-5.53,57.41,8s-40,2.67-45.72-2.28c6.58,3,41.4,14,44.08,2.59,2.73-11.64-26.17-10.37-56-5.39-37.46,6.27-77.45,17.16-70.45,1.39a10.1,10.1,0,0,1,.75-1.37c-2.12-.71-4-1.32-5.33-1.65-4.51-1.08-11.7-3.11-17.85-2.54a11.89,11.89,0,0,1,4,3.88c9.48,14.92-24.39,14.92-14.91,0a11.89,11.89,0,0,1,4-3.88c-6.15-.57-13.35,1.46-17.85,2.54-1.37.33-3.21.94-5.33,1.65a10.1,10.1,0,0,1,.75,1.37c7,15.77-33,4.88-70.46-1.39-29.77-5-58.67-6.25-55.94,5.39,2.68,11.41,37.5.42,44.08-2.59Zm139.76-3.64c6.83,2.19,14.24,4.09,18.83,1.06,6.63-4.38-10.58-7.11-18.83-1.06Zm-29.19-1.67a12.67,12.67,0,0,0-2.36-1,12.87,12.87,0,0,0-2.35,1c-14.86,14.89,19.57,14.89,4.71,0Zm-33.9,1.67c-8.25-6.05-25.47-3.32-18.83,1.06C637.55,383.16,645,381.26,651.79,379.07Z" transform="translate(-529.38 -372.84)"/></svg>